Coordinates
version=1
nRows=29
nColumns=18
inDegrees=yes

Units are S.I. units (second, meters, Newtons, ...)
If the header above contains a line with 'inDegrees', this indicates whether rotational values are in degrees (yes) or radians (no).

endheader
time	ground_thorax_rot_x	ground_thorax_rot_y	ground_thorax_rot_z	ground_thorax_tx	ground_thorax_ty	ground_thorax_tz	clav_prot	clav_elev	scapula_abduction	scapula_elevation	scapula_upward_rot	scapula_winging	plane_elv	shoulder_elv	axial_rot	elbow_flexion	pro_sup
      0.00000000	      0.51728761	     -7.36132673	    -10.80284309	     -0.02300873	      0.01126506	      0.01270186	    -18.94990420	    -10.14124195	    -15.67822872	     -8.97690855	     16.73197785	     16.50199634	    -26.00000000	     15.68701987	     43.35265335	     25.99242861	   -177.93895080
      0.02000000	      0.51728761	     -7.20883796	    -10.84018310	     -0.02276515	      0.01111048	      0.01282966	    -19.11419612	    -10.11384292	    -15.94372774	     -8.97801238	     16.78583730	     16.51021679	    -26.00000000	     15.54534637	     43.80486250	     26.01253792	   -178.00126919
      0.04000000	      0.51728761	     -6.99185123	    -10.91411965	     -0.02251850	      0.01101517	      0.01294540	    -19.32079176	    -10.14436921	    -16.28155465	     -9.01851200	     16.82057487	     16.55309673	    -26.00000000	     15.41226852	     43.92635527	     26.00283653	   -178.02186616
      0.06000000	      0.51728761	     -6.80052198	    -10.93826067	     -0.02238033	      0.01093794	      0.01302495	    -19.47254870	    -10.15933643	    -16.55817287	     -9.03370238	     16.80951703	     16.59021541	    -26.00000000	     15.34442053	     43.99844240	     26.00246128	   -178.24312873
      0.08000000	      0.51728761	     -6.74051577	    -10.98012794	     -0.02218757	      0.01102083	      0.01306768	    -19.48085219	    -10.29831530	    -16.62456554	     -9.10246513	     16.67830548	     16.67918325	    -26.00000000	     15.50840302	     44.16725978	     26.14478128	   -178.24483229
      0.10000000	      0.51728761	     -6.49012791	    -10.99372418	     -0.02221641	      0.01081382	      0.01322498	    -19.72403085	    -10.18329808	    -17.02383248	     -9.05592827	     16.78151378	     16.65258744	    -26.00000000	     15.21479394	     44.18122688	     26.07833665	   -178.15119104
      0.12000000	      0.51728761	     -6.45505943	    -11.02593150	     -0.02221034	      0.01079569	      0.01333740	    -19.75523323	    -10.21909202	    -17.06859375	     -9.08368128	     16.78222859	     16.67206082	    -26.00000000	     15.19265039	     44.26995659	     26.09165485	   -178.15373416
      0.14000000	      0.51728761	     -6.45517067	    -10.97862162	     -0.02243032	      0.01091056	      0.01336468	    -19.64887151	    -10.26266714	    -16.95782595	     -9.07735410	     16.65045423	     16.70308662	    -26.00000000	     15.32474640	     43.86977238	     26.07676578	   -178.13307342
      0.16000000	      0.51728761	     -6.25075513	    -11.01511808	     -0.02258488	      0.01080125	      0.01347257	    -19.90134578	    -10.24786733	    -17.35049374	     -9.10194273	     16.74377414	     16.71889819	    -26.00000000	     15.13243056	     44.37418562	     26.13122789	   -178.13000999
      0.18000000	      0.51728761	     -6.22585113	    -11.00626096	     -0.02286414	      0.01082581	      0.01353614	    -19.90452856	    -10.26045114	    -17.36129012	     -9.10815811	     16.73134192	     16.72757283	    -26.00000000	     15.13308236	     44.40645173	     26.15184869	   -178.12181995
      0.20000000	      0.51728761	     -6.23233499	    -11.03203196	     -0.02306856	      0.01078338	      0.01361896	    -19.96920627	    -10.27668509	    -17.42494361	     -9.13985908	     16.79829733	     16.72838888	    -26.00000000	     15.09845650	     45.10042676	     26.28165635	   -178.22051101
      0.22000000	      0.51728761	     -6.20664109	    -10.91419380	     -0.02367741	      0.01092457	      0.01362562	    -19.85474223	    -10.27664514	    -17.33089770	     -9.09499138	     16.64130400	     16.74777150	    -26.00000000	     15.23257141	     44.54550051	     26.23935848	   -178.23705474
      0.24000000	      0.51728761	     -6.19142510	    -10.88007052	     -0.02413162	      0.01096974	      0.01366611	    -19.83829979	    -10.27750812	    -17.31540874	     -9.08976780	     16.62111900	     16.75025366	    -26.00000000	     15.25404080	     44.55557998	     26.25576096	   -178.26492920
      0.26000000	      0.51728761	     -6.18805900	    -10.85319495	     -0.02460199	      0.01104515	      0.01371049	    -19.81534709	    -10.30442833	    -17.28774774	     -9.10059552	     16.59038613	     16.76449115	    -26.00000000	     15.30217535	     44.53753249	     26.27898546	   -178.27267831
      0.28000000	      0.51728761	     -6.19351218	    -10.83261444	     -0.02507613	      0.01109788	      0.01375632	    -19.78933916	    -10.31761628	    -17.24313644	     -9.10677529	     16.58160042	     16.76726596	    -26.00000000	     15.33147303	     44.52310653	     26.29237546	   -178.26788806
      0.30000000	      0.51728761	     -6.20869646	    -10.82047292	     -0.02554810	      0.01114541	      0.01380632	    -19.75135853	    -10.32729476	    -17.17109666	     -9.11227830	     16.58255662	     16.76404858	    -26.00000000	     15.35529851	     44.46974287	     26.28893061	   -178.24652313
      0.32000000	      0.51728761	     -6.22514246	    -10.81152381	     -0.02600945	      0.01121679	      0.01383471	    -19.69526429	    -10.35316781	    -17.07490351	     -9.12402074	     16.56471997	     16.76862629	    -26.00000000	     15.41156017	     44.37092516	     26.28603082	   -178.22388362
      0.34000000	      0.51728761	     -6.23040784	    -10.79660955	     -0.02643250	      0.01118277	      0.01389800	    -19.67150844	    -10.30704527	    -17.02102667	     -9.09811766	     16.60001883	     16.73729873	    -26.00000000	     15.37805895	     44.43878519	     26.27364613	   -178.15540315
      0.36000000	      0.51728761	     -6.21971513	    -10.80023381	     -0.02682186	      0.01119930	      0.01393090	    -19.64991473	    -10.31035094	    -16.97691458	     -9.10100978	     16.60596003	     16.73322568	    -26.00000000	     15.39166697	     44.44171495	     26.27103751	   -178.10658482
      0.38000000	      0.51728761	     -6.18652167	    -10.79115363	     -0.02720018	      0.01121859	      0.01398473	    -19.63903525	    -10.29389191	    -16.96496274	     -9.08755714	     16.60226791	     16.72566504	    -26.00000000	     15.39066389	     44.44319608	     26.26316912	   -178.09538645
      0.40000000	      0.51728761	     -6.16758909	    -10.81313886	     -0.02750235	      0.01122119	      0.01402430	    -19.63120629	    -10.29910875	    -16.93998375	     -9.09426721	     16.61529152	     16.72301671	    -26.00000000	     15.38663361	     44.43508032	     26.26065117	   -178.09048976
      0.42000000	      0.51728761	     -6.14649548	    -10.83892804	     -0.02778352	      0.01125544	      0.01406052	    -19.61477520	    -10.31315437	    -16.90334180	     -9.10471862	     16.61918360	     16.72456541	    -26.00000000	     15.38732823	     44.39784490	     26.23823207	   -178.08633356
      0.44000000	      0.51728761	     -6.06752403	    -10.82807644	     -0.02810033	      0.01126963	      0.01408467	    -19.62837686	    -10.28671800	    -16.94621477	     -9.08242536	     16.60469383	     16.72037121	    -26.00000000	     15.35533465	     44.41372931	     26.18301749	   -178.11322204
      0.46000000	      0.51728761	     -6.03119524	    -10.85477477	     -0.02832256	      0.01123214	      0.01411937	    -19.64173583	    -10.28366211	    -16.97303914	     -9.08018232	     16.60212436	     16.72217021	    -26.00000000	     15.33682235	     44.33401271	     26.22087718	   -178.13854509
      0.48000000	      0.51728761	     -5.98778160	    -10.88481451	     -0.02852191	      0.01123521	      0.01415171	    -19.66063021	    -10.29763786	    -17.00839323	     -9.08929893	     16.59428549	     16.73306572	    -26.00000000	     15.30832395	     44.31280182	     26.20352122	   -178.15481512
      0.50000000	      0.51728761	     -5.95775850	    -10.91246159	     -0.02870627	      0.01122254	      0.01417645	    -19.66982148	    -10.30748416	    -17.03191657	     -9.09339670	     16.58029041	     16.74211723	    -26.00000000	     15.28092809	     44.24820524	     26.19003458	   -178.14580514
      0.52000000	      0.51728761	     -5.98986182	    -10.93821326	     -0.02887000	      0.01121834	      0.01419205	    -19.61315527	    -10.32794114	    -16.95162498	     -9.09577272	     16.54101819	     16.74970938	    -26.00000000	     15.29679016	     44.00758422	     26.17095451	   -178.11358694
      0.54000000	      0.51728761	     -5.91397782	    -10.96283567	     -0.02903359	      0.01119010	      0.01421599	    -19.70282167	    -10.34605386	    -17.11859601	     -9.10929545	     16.52548700	     16.77750508	    -26.00000000	     15.23437166	     44.03553126	     26.16481413	   -178.07000601
      0.56000000	      0.51728761	     -5.92475322	    -10.98294439	     -0.02917646	      0.01110243	      0.01417877	    -19.69878351	    -10.34431139	    -17.12598924	     -9.10286694	     16.50567488	     16.78058823	    -26.00000000	     15.22835388	     44.01546321	     26.18869972	   -178.07025143
